# xmcd
#
# Track frame offsets:
#	150
#	20163
#	42197
#	61114
#	84520
#	112049
#	129817
#	153967
#	174497
#	189134
#	208352
#	231885
#	260626
#	276894
#	294392
#	309743
#	322824
#
# Disc length: 4586 seconds
#
# Revision: 8
# Processed by: cddbd v1.5.2PL0 Copyright (c) Steve Scherf et al.
# Submitted via: EasyCDDAExtractor 10.0.2.1
#
DISCID=eb11e811
DTITLE=Gilberto Gil - oOo
DYEAR=2003
DGENRE=MPB
TTITLE0=Eleve-Se Alto ao Céu
TTITLE1=Não Chore Mais
TTITLE2=Kaya 'n' Gan Daya
TTITLE3=Rebel Music
TTITLE4=Vamos Fugir
TTITLE5=Them Belly Full
TTITLE6=A Novidade
TTITLE7=Wainting in Vain
TTITLE8=Three Little Birds
TTITLE9=Garota de Ipanema
TTITLE10=Extra
TTITLE11=Nos Barracos da Cidade
TTITLE12=Is This Love
TTITLE13=Could You Be Loved
TTITLE14=Alagados
TTITLE15=Sítio do Pica-Pau-Amarelo
TTITLE16=Esperando na Janela
EXTD=YEAR: 2003
EXTT0=
EXTT1=
EXTT2=
EXTT3=
EXTT4=
EXTT5=
EXTT6=
EXTT7=
EXTT8=
EXTT9=
EXTT10=
EXTT11=
EXTT12=
EXTT13=
EXTT14=
EXTT15=
EXTT16=
PLAYORDER=
